<?xml version="1.0" encoding="UTF-8"?>
<svg id="Layer_2" data-name="Layer 2" xmlns="http://www.w3.org/2000/svg" viewBox="0 0 217.99 217.99">
  <defs>
    <style>
      .cls-1 {
        fill: #ee2236;
      }

      .cls-2 {
        fill: #231f20;
      }

      .cls-3 {
        fill: none;
        stroke: #231f20;
        stroke-miterlimit: 10;
        stroke-width: 10px;
      }
    </style>
  </defs>
  <g id="Vectors">
    <g>
      <g>
        <path class="cls-2" d="M182.49,91.26l6.78,9.22c-7.34-42.36-27.67-61.18-38.4-56.29-10.73,4.89-16.57,4.14-16.57,4.14,0,0-17.7-7.34-43.11-7.34s-34.64,19.77-33.32,24.47c1.32,4.71,7.89,36.23-.91,27.43-8.8-8.8-15.24-6.91-15.24-6.91-10.37,.63-15.87,12.57-15.87,12.57-2.83,4.87,2.04,11.63,2.04,11.63-1.89,27.34,1.41,25.61,1.41,25.61,5.34-31.9,16.5-37.39,16.5-37.39,0,0,2.83,5.59,16.67,6.58,13.85,.99,19.78-14.84,19.78-14.84,6.98,5.61,18.06,9.23,18.06,9.23l8.77,13.95,6.53,19.32c-.54,3.94,.98,6.24,.98,6.24-3.2,25.98-10.54,52.9-10.54,52.9l10.17-1.13c1.51-1.13,3.95-13.18,3.95-13.18,3.95-24.85,10.35-43.49,10.35-43.49l-8.85-22.4,.75-12.61c12.24-.94,14.68-3.2,14.68-3.2,11.67,1.51,16.38,.94,16.38,.94l3.01,6.4,1.32-3.2,3.58,7.72c.19-3.95,2.82-9.41,2.82-9.41,11.86,3.58,17.88,16,17.88,16,.38-6.4-2.45-18.83-2.45-18.83l6.02,8.09c.19-2.82-3.2-12.24-3.2-12.24Zm-57.94,41.88s-.73,5.68,0,6.7c0,0-7.87,41.38-9.76,43.28l-1.75,.73s1.89-27.69,9.33-50.85l-9.33-21.71v-5.83s1.17,3.64,5.1,7.58l6.41,20.11Z"/>
        <path class="cls-1" d="M28.26,94.56c-.61,.57-2.96,2.91-3.35,6.75-.42,4.16,1.76,7.08,2.24,7.68,0,0,5.61-6.86,5.27-12.33,0,0-.87-2.17-4.15-2.1Z"/>
      </g>
      <circle class="cls-3" cx="108.99" cy="108.99" r="103.99"/>
      <path class="cls-2" d="M46.06,191.78s68.77-11.05,122.35,2.56c0,0-53.34,44.63-122.35-2.56Z"/>
    </g>
  </g>
</svg>