<?xml version="1.0" encoding="UTF-8"?>
<svg id="Layer_2" data-name="Layer 2" xmlns="http://www.w3.org/2000/svg" viewBox="0 0 249.68 48.94">
  <defs>
    <style>
      .cls-1 {
        letter-spacing: -.02em;
      }

      .cls-2 {
        fill: #ee2236;
      }

      .cls-3, .cls-4 {
        fill: #fff;
      }

      .cls-5 {
        letter-spacing: 0em;
      }

      .cls-4 {
        font-family: Lexend-Bold, Lexend;
        font-size: 17.81px;
        font-variation-settings: 'wght' 700;
        font-weight: 700;
      }

      .cls-6 {
        fill: none;
        stroke: #fff;
        stroke-miterlimit: 10;
        stroke-width: 2px;
      }

      .cls-7 {
        letter-spacing: -.05em;
      }

      .cls-8 {
        letter-spacing: -.01em;
      }
    </style>
  </defs>
  <g id="Color_1" data-name="Color 1">
    <g>
      <g>
        <path class="cls-3" d="M37.68,18.82l1.4,1.91c-1.52-8.75-5.72-12.64-7.94-11.63-2.22,1.01-3.42,.86-3.42,.86,0,0-3.66-1.52-8.91-1.52s-7.16,4.08-6.89,5.06c.27,.97,1.63,7.49-.19,5.67-1.82-1.82-3.15-1.43-3.15-1.43-2.14,.13-3.28,2.6-3.28,2.6-.58,1.01,.42,2.4,.42,2.4-.39,5.65,.29,5.29,.29,5.29,1.1-6.59,3.41-7.73,3.41-7.73,0,0,.58,1.16,3.45,1.36,2.86,.2,4.09-3.07,4.09-3.07,1.44,1.16,3.73,1.91,3.73,1.91l1.81,2.88,1.35,3.99c-.11,.81,.2,1.29,.2,1.29-.66,5.37-2.18,10.93-2.18,10.93l2.1-.23c.31-.23,.82-2.72,.82-2.72,.82-5.13,2.14-8.99,2.14-8.99l-1.83-4.63,.16-2.61c2.53-.19,3.03-.66,3.03-.66,2.41,.31,3.38,.19,3.38,.19l.62,1.32,.27-.66,.74,1.59c.04-.82,.58-1.94,.58-1.94,2.45,.74,3.7,3.31,3.7,3.31,.08-1.32-.51-3.89-.51-3.89l1.24,1.67c.04-.58-.66-2.53-.66-2.53Zm-11.97,8.65s-.15,1.17,0,1.39c0,0-1.63,8.55-2.02,8.94l-.36,.15s.39-5.72,1.93-10.51l-1.93-4.49v-1.2s.24,.75,1.05,1.57l1.32,4.16Z"/>
        <path class="cls-2" d="M5.81,19.51c-.13,.12-.61,.6-.69,1.39-.09,.86,.36,1.46,.46,1.59,0,0,1.16-1.42,1.09-2.55,0,0-.18-.45-.86-.43Z"/>
      </g>
      <circle class="cls-6" cx="22.49" cy="22.49" r="21.49"/>
      <path class="cls-3" d="M9.49,39.6s14.21-2.28,25.28,.53c0,0-11.02,9.22-25.28-.53Z"/>
    </g>
    <text class="cls-4" transform="translate(53.21 17.9)"><tspan x="0" y="0">WHOOPING CRANE </tspan><tspan class="cls-5" x="0" y="21.38">F</tspan><tspan x="10.85" y="21.38">OUN</tspan><tspan class="cls-1" x="53.31" y="21.38">D</tspan><tspan class="cls-7" x="66.71" y="21.38">A</tspan><tspan x="78.18" y="21.38">T</tspan><tspan class="cls-8" x="89.85" y="21.38">I</tspan><tspan x="99.47" y="21.38">ON</tspan></text>
  </g>
</svg>