<?xml version="1.0" encoding="UTF-8"?>
<svg id="Layer_2" data-name="Layer 2" xmlns="http://www.w3.org/2000/svg" viewBox="0 0 197.14 160.03">
  <defs>
    <style>
      .cls-1 {
        fill: #dd1f26;
      }
    </style>
  </defs>
  <g id="Color_1" data-name="Color 1">
    <g id="_1PVCm6.tif" data-name="1PVCm6.tif">
      <g>
        <path class="cls-1" d="M180.58,160.03H20.8c-.49-.14-.97-.32-1.46-.4-3.46-.59-6.71-1.73-9.52-3.86C2.92,150.57,.08,143.29,.06,134.99-.04,90.66,.01,46.34,.01,2.01,.01,1.34,.01,.66,.01,0H172.51V24.53h24.62v115.48c-.13,.35-.32,.68-.37,1.04-1.41,9.55-6.04,16.36-15.91,18.73-.11,.03-.19,.16-.28,.25ZM160.18,12.34H12.38c-.02,.51-.05,.89-.05,1.27,0,40.41-.02,80.83,.01,121.24,0,8.06,4.95,12.86,13.05,12.86,45.62,0,91.24,0,136.86,0,.54,0,1.09,0,2.01,0-3.76-4.62-4.12-9.7-4.11-14.98,.06-39.32,.03-78.65,.03-117.97,0-.76,0-1.53,0-2.43Z"/>
        <path class="cls-1" d="M24.79,61.58h55.19v61.34H24.79V61.58Z"/>
        <path class="cls-1" d="M147.8,36.98v12.03H24.81v-12.03h122.99Z"/>
        <path class="cls-1" d="M92.5,73.66v-12.07h55.25v12.07h-55.25Z"/>
        <path class="cls-1" d="M92.52,86.21h55.18v12.11h-55.18v-12.11Z"/>
        <path class="cls-1" d="M135.39,122.99h-42.86v-12.07h42.86v12.07Z"/>
      </g>
    </g>
  </g>
</svg>