<?xml version="1.0" encoding="UTF-8"?>
<svg id="Layer_2" data-name="Layer 2" xmlns="http://www.w3.org/2000/svg" viewBox="0 0 240.18 240.18">
  <defs>
    <style>
      .cls-1 {
        fill: #ee2236;
      }

      .cls-2 {
        fill: #fff;
      }

      .cls-3 {
        fill: none;
        stroke: #fff;
        stroke-miterlimit: 10;
        stroke-width: 10px;
      }
    </style>
  </defs>
  <g id="Color_1" data-name="Color 1">
    <g>
      <g>
        <path class="cls-2" d="M201.44,100.46l7.5,10.21c-8.13-46.88-30.63-67.71-42.5-62.3-11.88,5.42-18.33,4.58-18.33,4.58,0,0-19.58-8.13-47.71-8.13s-38.34,21.88-36.88,27.08c1.46,5.21,8.73,40.09-1.01,30.36-9.74-9.74-16.87-7.65-16.87-7.65-11.48,.7-17.56,13.91-17.56,13.91-3.13,5.39,2.26,12.87,2.26,12.87-2.09,30.26,1.57,28.34,1.57,28.34,5.91-35.3,18.26-41.39,18.26-41.39,0,0,3.13,6.19,18.45,7.28,15.33,1.09,21.9-16.42,21.9-16.42,7.72,6.21,19.99,10.22,19.99,10.22l9.7,15.44,7.23,21.38c-.59,4.36,1.09,6.91,1.09,6.91-3.54,28.75-11.67,58.55-11.67,58.55l11.25-1.25c1.67-1.25,4.38-14.58,4.38-14.58,4.38-27.5,11.46-48.13,11.46-48.13l-9.79-24.79,.83-13.96c13.54-1.04,16.25-3.54,16.25-3.54,12.92,1.67,18.13,1.04,18.13,1.04l3.33,7.08,1.46-3.54,3.96,8.54c.21-4.38,3.13-10.42,3.13-10.42,13.13,3.96,19.79,17.71,19.79,17.71,.42-7.08-2.71-20.83-2.71-20.83l6.67,8.96c.21-3.13-3.54-13.54-3.54-13.54Zm-64.12,46.35s-.81,6.29,0,7.42c0,0-8.71,45.8-10.8,47.9l-1.94,.81s2.1-30.64,10.32-56.28l-10.32-24.03v-6.45s1.29,4.03,5.64,8.39l7.1,22.25Z"/>
        <path class="cls-1" d="M30.74,104.12c-.68,.64-3.28,3.22-3.71,7.47-.46,4.6,1.95,7.83,2.47,8.5,0,0,6.21-7.59,5.83-13.65,0,0-.97-2.4-4.6-2.32Z"/>
      </g>
      <circle class="cls-3" cx="120.09" cy="120.09" r="115.09"/>
      <path class="cls-2" d="M50.45,211.72s76.11-12.23,135.41,2.83c0,0-59.04,49.4-135.41-2.83Z"/>
    </g>
  </g>
</svg>